<svg width="160" height="60" viewBox="0 0 160 60" fill="none" xmlns="http://www.w3.org/2000/svg">
<g clip-path="url(#clip0_17_278)">
<path d="M117.285 49.2536L121.889 37.6119H135.182L128.873 19.9519L136.763 0L159.361 59.9998H142.696L138.834 49.2536H117.285Z" fill="#3D3D3D"/>
<path d="M103.068 59.9999L127.259 0L111.221 7.9727e-05L94.6728 38.7733L82.9052 0.000159453H70.5775L57.9423 38.7733L49.0316 21.1052L40.9678 45.9483L49.1549 59.9999H64.9385L76.3564 25.2286L87.2427 59.9999H103.068Z" fill="#5A0FC8"/>
<path d="M15.2239 39.4029H25.1025C28.095 39.4029 30.7596 39.0689 33.0965 38.4009L35.6512 30.5302L42.7914 8.53264C42.2473 7.67032 41.6262 6.855 40.928 6.08678C37.262 2.02888 31.8983 0 24.8366 0H0V59.9998H15.2239V39.4029ZM28.2998 13.8036C29.7318 15.2447 30.4477 17.1733 30.4477 19.5895C30.4477 22.0241 29.818 23.9551 28.5587 25.3823C27.1782 26.9681 24.6361 27.761 20.9328 27.761H15.2239V11.6416H20.9748C24.4262 11.6416 26.8679 12.3623 28.2998 13.8036Z" fill="#3D3D3D"/>
</g>
<defs>
<clipPath id="clip0_17_278">
<rect width="159.361" height="60" fill="white"/>
</clipPath>
</defs>
</svg>
