<svg width="61" height="28" viewBox="0 0 61 28" fill="none" xmlns="http://www.w3.org/2000/svg">
<path d="M11.36 -1.90735e-06H20.04C21 -1.90735e-06 21.6 0.439998 21.84 1.32L30.76 26.84C30.7867 26.92 30.8 27.0533 30.8 27.24C30.8 27.4 30.7067 27.5733 30.52 27.76C30.36 27.92 30.16 28 29.92 28H22.52C21.72 28 21.2 27.6667 20.96 27L20 24.36H11.4L10.44 27C10.2 27.6667 9.68 28 8.88 28H1.48C1.24 28 1.02667 27.92 0.84 27.76C0.68 27.5733 0.6 27.4 0.6 27.24C0.6 27.0533 0.613333 26.92 0.64 26.84L9.56 1.32C9.8 0.439998 10.4 -1.90735e-06 11.36 -1.90735e-06ZM13.44 16.56H17.96L15.68 9.12L13.44 16.56ZM60.2063 26.68C60.2863 26.8133 60.3263 26.9867 60.3263 27.2C60.3263 27.3867 60.2329 27.5733 60.0463 27.76C59.8863 27.92 59.6863 28 59.4463 28H50.3263C49.5529 28 49.0063 27.6933 48.6863 27.08L43.8063 18.36V26.92C43.8063 27.2133 43.6996 27.4667 43.4863 27.68C43.2729 27.8933 43.0196 28 42.7263 28H35.0863C34.7929 28 34.5396 27.8933 34.3263 27.68C34.1129 27.4667 34.0063 27.2133 34.0063 26.92V1.08C34.0063 0.786666 34.1129 0.533333 34.3263 0.319999C34.5396 0.106665 34.7929 -1.90735e-06 35.0863 -1.90735e-06H42.7263C43.0196 -1.90735e-06 43.2729 0.106665 43.4863 0.319999C43.6996 0.533333 43.8063 0.786666 43.8063 1.08V9L48.3263 0.879999C48.6196 0.293332 49.1529 -1.90735e-06 49.9263 -1.90735e-06H58.7663C59.0063 -1.90735e-06 59.2063 0.0933318 59.3663 0.279999C59.5529 0.439999 59.6463 0.626665 59.6463 0.839999C59.6463 1.02667 59.6063 1.18666 59.5263 1.32L52.3263 13.4L60.2063 26.68Z" fill="#7F22FE"/>
</svg>
